<?xml version="1.0" encoding="UTF-8"?>
<svg viewBox="0 0 197 197" xmlns="http://www.w3.org/2000/svg">
 <path stroke="#44a0b3" d="m196 98a98 98 0 1 0 -196 0 98 98 0 1 0 196 0"/>
 <path d="m176 98a78 78 0 1 0 -156 0 78 78 0 1 0 156 0" fill="#fff"/>
 <path d="m123 85h31v25h-31z" fill="#fff"/>
 <path transform="translate(13.325)" d="m50.164 139v-83.607" stroke="#44a0b3" stroke-linecap="square" stroke-width="25"/>
 <path transform="matrix(.9 0 0 .8821 -9.9284 .9994)" d="m88.543 61.66h47.32c12.98 0 23.515 10.535 23.515 23.515s-10.535 23.515-23.515 23.515h-47.32" fill="none" stroke="#44a0b3" stroke-width="28.058"/>
 <path stroke="#44a0b3" d="m85.495 194.98c-24.941-3.2641-48.229-16.358-63.766-35.851-6.9576-8.7294-12.919-19.64-16.307-29.842-3.7161-11.191-5.0403-19.495-5.0253-31.514 0.01966-15.722 2.9841-28.599 9.8217-42.663 13.74-28.261 39.969-47.922 71.439-53.548 4.855-0.86803 6.8934-0.99028 16.417-0.9846 11.616 0.00693 14.892 0.36234 23.666 2.5676 37.697 9.4746 66.053 40.219 72.726 78.851 1.1346 6.5686 1.541 18.295 0.87188 25.158-2.7035 27.729-16.776 52.694-39.059 69.291-13.523 10.073-28.987 16.306-45.967 18.529-6.0955 0.79804-18.737 0.8005-24.816 0.00484v-1e-5zm23.184-19.627c10.746-1.5797 20.386-4.9374 29.05-10.119 20.264-12.118 33.893-32.325 37.591-55.735 0.74485-4.7149 0.74604-18.3 0.00204-23.026-4.919-31.249-27.76-56.49-58.06-64.163-20.359-5.1555-42.544-1.7724-60.204 9.1811-14.967 9.2826-26.604 23.565-32.467 39.845-3.2013 8.8897-4.5864 16.938-4.5864 26.65-1e-5 21.044 7.8578 40.164 22.592 54.972 11.916 11.975 26.62 19.515 43.324 22.216 6.1164 0.98866 16.684 1.0717 22.758 0.17882h-1e-5z"/>
</svg>
